# xmcd CD database file
#
# Track frame offsets:
#	150
#	16197
#	33092
#	52443
#	80486
#	97845
#	116345
#	132778
#	148464
#	162867
#	177442
#	197317
#	217480
#	240282
#	258883
#	283954
#	304006
#
# Disc length: 4306 seconds
#
# Revision: 0
# Processed by: cddbd v1.5.1PL0 Copyright (c) Steve Scherf et al.
# Submitted via: CDex 1.51
#
DISCID=ee10d011
DTITLE=Marty Paich - The Modern Touch (The Broadway Bit (1-9) - I Get a Boot Out Of You (10-17))
DYEAR=1959
DGENRE=Jazz
TTITLE0=It's allright with me
TTITLE1=I've ground accustomed to her face
TTITLE2=I've never been in love before
TTITLE3=I love Paris
TTITLE4=Too close for comfort
TTITLE5=Younger than springtime - The surrey with the fringe on top
TTITLE6=If I were a bell
TTITLE7=Lazy afternoon
TTITLE8=Just in time
TTITLE9=It don't mean a thing
TTITLE10=No more
TTITLE11=Love for sale
TTITLE12=Moanin'
TTITLE13=Violets for your furs
TTITLE14=What am I here for - Cottontail
TTITLE15=Warm valley
TTITLE16=Things ain't what they used to be
EXTD=YEAR: 1959
EXTT0=
EXTT1=
EXTT2=
EXTT3=
EXTT4=
EXTT5=
EXTT6=
EXTT7=
EXTT8=
EXTT9=
EXTT10=
EXTT11=
EXTT12=
EXTT13=
EXTT14=
EXTT15=
EXTT16=
PLAYORDER=
